<svg width="16" height="16" viewBox="0 0 16 16" fill="none" xmlns="http://www.w3.org/2000/svg">
<path d="M10.6667 7.33333V8.33333H11.6667V7.33333H10.6667ZM5.33332 7.33333H4.33332V8.33333H5.33332V7.33333ZM8.99999 10C8.99999 9.44772 8.55227 9 7.99999 9C7.4477 9 6.99999 9.44772 6.99999 10H8.99999ZM6.99999 11.3333C6.99999 11.8856 7.4477 12.3333 7.99999 12.3333C8.55227 12.3333 8.99999 11.8856 8.99999 11.3333H6.99999ZM3.99999 8.33333H12V6.33333H3.99999V8.33333ZM12.3333 8.66667V12.6667H14.3333V8.66667H12.3333ZM12 13H3.99999V15H12V13ZM3.66666 12.6667V8.66667H1.66666V12.6667H3.66666ZM3.99999 13C3.81589 13 3.66666 12.8508 3.66666 12.6667H1.66666C1.66666 13.9553 2.71133 15 3.99999 15V13ZM12.3333 12.6667C12.3333 12.8508 12.1841 13 12 13V15C13.2887 15 14.3333 13.9553 14.3333 12.6667H12.3333ZM12 8.33333C12.1841 8.33333 12.3333 8.48257 12.3333 8.66667H14.3333C14.3333 7.378 13.2887 6.33333 12 6.33333V8.33333ZM3.99999 6.33333C2.71133 6.33333 1.66666 7.378 1.66666 8.66667H3.66666C3.66666 8.48257 3.81589 8.33333 3.99999 8.33333V6.33333ZM9.66666 4.66667V7.33333H11.6667V4.66667H9.66666ZM10.6667 6.33333H5.33332V8.33333H10.6667V6.33333ZM6.33332 7.33333V4.66667H4.33332V7.33333H6.33332ZM7.99999 3C8.92046 3 9.66666 3.74619 9.66666 4.66667H11.6667C11.6667 2.64162 10.025 1 7.99999 1V3ZM7.99999 1C5.97495 1 4.33332 2.64162 4.33332 4.66667H6.33332C6.33332 3.74619 7.07951 3 7.99999 3V1ZM6.99999 10V11.3333H8.99999V10H6.99999Z" fill="#375BFD"/>
</svg>
